Coordinates
version=1
nRows=65
nColumns=12
inDegrees=yes

Units are S.I. units (second, meters, Newtons, ...)
Angles are in degrees

endheader
time	SC_y	SC_z	SC_x	AC_y	AC_z	AC_x	GH_y	GH_z	GH_yy	EL_x	PS_y
       0.0              -43.55          22.26          19.17          66.22           1.97          5.174         -99.97        -0.4984          33.27          120.9          13.96
   0.01878              -43.55          22.26          19.17          66.22          1.969          5.171         -99.94        -0.4913          33.26          120.9          13.96
   0.03756              -43.56          22.25          19.18          66.22          1.968          5.168          -99.9        -0.4839          33.24          120.9          13.96
   0.05634              -43.56          22.25          19.18          66.22          1.966          5.164         -99.87        -0.4759          33.23          120.9          13.96
   0.07512              -43.56          22.25          19.19          66.22          1.965           5.16         -99.83        -0.4674          33.22          120.9          13.96
    0.0939              -43.56          22.25          19.19          66.22          1.963          5.156         -99.79        -0.4584          33.21          120.9          13.96
    0.1127              -43.56          22.25           19.2          66.22          1.961          5.151         -99.75        -0.4488          33.19          120.9          13.97
    0.1315              -43.56          22.24          19.21          66.22          1.959          5.146         -99.71        -0.4385          33.18          120.9          13.97
    0.1502              -43.56          22.24          19.21          66.22          1.957          5.141         -99.66        -0.4274          33.16          120.9          13.97
     0.169              -43.56          22.24          19.22          66.22          1.955          5.136         -99.61        -0.4156          33.14          120.9          13.97
    0.1878              -43.57          22.24          19.23          66.22          1.953           5.13         -99.56        -0.4029          33.12          120.9          13.97
    0.2066              -43.57          22.23          19.23          66.22           1.95          5.124          -99.5        -0.3892           33.1          120.9          13.97
    0.2254              -43.57          22.23          19.24          66.22          1.947          5.117         -99.43        -0.3745          33.08          120.9          13.98
    0.2441              -43.57          22.23          19.25          66.22          1.944          5.109         -99.37        -0.3585          33.06          120.9          13.98
    0.2629              -43.57          22.22          19.26          66.22          1.941          5.101         -99.29        -0.3413          33.03          120.9          13.98
    0.2817              -43.58          22.22          19.27          66.22          1.938          5.093         -99.21        -0.3226           33.0          120.9          13.98
    0.3005              -43.58          22.21          19.29          66.22          1.934          5.083         -99.12        -0.3023          32.97          120.9          13.99
    0.3193              -43.58          22.21           19.3          66.22           1.93          5.073         -99.03        -0.2802          32.94          120.9          13.99
    0.3381              -43.59           22.2          19.31          66.22          1.925          5.062         -98.93         -0.256           32.9          120.9          13.99
    0.3568              -43.59           22.2          19.33          66.22          1.921          5.049         -98.81        -0.2295          32.86          120.9           14.0
    0.3756              -43.59          22.19          19.35          66.22          1.915          5.036         -98.69        -0.2005          32.82          120.9           14.0
    0.3944               -43.6          22.18          19.37          66.22          1.909          5.021         -98.55        -0.1685          32.77          120.9          14.01
    0.4132               -43.6          22.17          19.39          66.22          1.903          5.004          -98.4        -0.1332          32.72          120.9          14.01
     0.432              -43.61          22.17          19.41          66.22          1.895          4.986         -98.23       -0.09401          32.66          120.8          14.02
    0.4507              -43.61          22.16          19.44          66.22          1.887          4.966         -98.04       -0.05051          32.59          120.8          14.03
    0.4695              -43.62          22.14          19.47          66.22          1.878          4.943         -97.83      -0.001956          32.52          120.8          14.03
    0.4883              -43.63          22.13           19.5          66.22          1.868          4.918          -97.6        0.05243          32.44          120.8          14.04
    0.5071              -43.63          22.12          19.53          66.22          1.857          4.889         -97.34         0.1136          32.35          120.8          14.05
    0.5259              -43.64           22.1          19.58          66.23          1.844          4.857         -97.04         0.1827          32.24          120.8          14.06
    0.5446              -43.65          22.08          19.62          66.23           1.83          4.821         -96.71         0.2612          32.12          120.8          14.07
    0.5634              -43.67          22.06          19.68          66.23          1.813          4.779         -96.32         0.3508          31.99          120.7          14.09
    0.5822              -43.68          22.04          19.74          66.23          1.794          4.731         -95.88         0.4536          31.83          120.7           14.1
     0.601               -43.7          22.01          19.81          66.23          1.772          4.676         -95.37         0.5723          31.65          120.7          14.12
    0.6198              -43.71          21.98          19.89          66.23          1.746          4.612         -94.78         0.7103          31.45          120.7          14.14
    0.6385              -43.74          21.95          19.99          66.23          1.716          4.536         -94.09         0.8716           31.2          120.6          14.16
    0.6573              -43.76           21.9           20.1          66.23          1.681          4.448         -93.27          1.062          30.92          120.6          14.19
    0.6761              -43.79          21.85          20.23          66.23          1.639          4.343          -92.3          1.288          30.58          120.5          14.23
    0.6949              -43.83          21.79          20.39          66.23          1.589          4.216         -91.14          1.559          30.17          120.5          14.27
    0.7137              -43.87          21.71          20.59          66.23          1.528          4.064         -89.73          1.887          29.68          120.4          14.32
    0.7324              -43.92          21.62          20.83          66.23          1.454          3.877         -88.01          2.287          29.07          120.3          14.38
    0.7512              -43.99          21.51          21.12          66.23          1.362          3.647         -85.89          2.782          28.33          120.2          14.45
      0.77              -44.07          21.37          21.49          66.23          1.248           3.36         -83.24          3.398           27.4          120.1          14.54
    0.7888              -44.17          21.19          21.95          66.23          1.104          2.999         -79.91          4.175          26.23          119.9          14.66
    0.8076              -44.31          20.97          22.54          66.24         0.9213          2.539         -75.67          5.162          24.75          119.7          14.81
    0.8263              -44.47          20.68          23.29          66.24         0.6871          1.951         -70.25          6.425          22.85          119.4           15.0
    0.8451              -44.69          20.31          24.26          66.24         0.3866          1.196         -63.29          8.047          20.41          119.0          15.25
    0.8639              -44.96          19.84          25.49          66.25       0.002687         0.2317          -54.4          10.12          17.29          118.6          15.56
    0.8827              -45.31          19.25          27.04          66.25          -0.48        -0.9807         -43.22          12.72          13.37          118.0          15.95
    0.9015              -45.73          18.52          28.93          66.26         -1.068         -2.458          -29.6           15.9          8.599          117.3          16.43
    0.9203              -46.22          17.68          31.12          66.27          -1.75         -4.171         -13.81          19.57          3.064          116.5          16.98
     0.939              -46.75          16.78          33.49          66.28         -2.488         -6.025          3.282          23.56         -2.929          115.6          17.58
    0.9578              -47.28          15.87          35.86          66.29         -3.227          -7.88          20.38          27.54         -8.922          114.7          18.18
    0.9766              -47.76          15.03          38.05           66.3         -3.908         -9.592          36.17          31.22         -14.46          113.9          18.74
    0.9954              -48.19          14.31          39.94           66.3         -4.497         -11.07          49.79          34.39         -19.23          113.2          19.21
     1.014              -48.53          13.71          41.49          66.31         -4.979         -12.28          60.96           37.0         -23.15          112.6          19.61
     1.033              -48.81          13.24          42.72          66.31         -5.363         -13.25          69.85          39.07         -26.27          112.2          19.92
     1.052              -49.02          12.87          43.69          66.32         -5.664          -14.0          76.81          40.69         -28.71          111.8          20.16
      1.07              -49.19          12.59          44.44          66.32         -5.898         -14.59          82.24          41.95         -30.61          111.5          20.35
     1.089              -49.32          12.36          45.03          66.32         -6.081         -15.05          86.47          42.94         -32.09          111.3           20.5
     1.108              -49.42          12.18          45.49          66.32         -6.225         -15.41          89.81          43.72         -33.26          111.1          20.62
     1.127              -49.51          12.04          45.86          66.33         -6.339          -15.7          92.45          44.33         -34.19          111.0          20.71
     1.146              -49.57          11.93          46.15          66.33         -6.431         -15.93          94.57          44.83         -34.93          110.9          20.79
     1.164              -49.62          11.84          46.39          66.33         -6.505         -16.11          96.29          45.23         -35.53          110.8          20.85
     1.183              -49.67          11.76          46.59          66.33         -6.566         -16.27           97.7          45.55         -36.03          110.7           20.9
     1.202               -49.7           11.7          46.75          66.33         -6.616         -16.39          98.86          45.83         -36.44          110.7          20.94
